<mxfile host="www.draw.io" modified="2020-02-04T01:28:41.190Z" agent="Mozilla/5.0 (Windows NT 10.0; Win64; x64) AppleWebKit/537.36 (KHTML, like Gecko) Chrome/79.0.3945.130 Safari/537.36" etag="37vlbWnP4hWSiGIXAzm6" version="12.6.4" type="github">
  <diagram id="tJ51bHczGNNW3cPT_soM" name="第1頁">
    <mxGraphModel dx="1550" dy="836" grid="1" gridSize="10" guides="1" tooltips="1" connect="1" arrows="1" fold="1" page="1" pageScale="1" pageWidth="1169" pageHeight="827" math="0" shadow="0">
      <root>
        <mxCell id="0"/>
        <mxCell id="1" parent="0"/>
        <mxCell id="abw72GNphMU_b3TvLCAP-1" value="finedb_dev" style="shape=datastore;whiteSpace=wrap;html=1;" vertex="1" parent="1">
          <mxGeometry x="320" y="80" width="60" height="60" as="geometry"/>
        </mxCell>
        <mxCell id="abw72GNphMU_b3TvLCAP-2" value="frplus_dev" style="shape=datastore;whiteSpace=wrap;html=1;" vertex="1" parent="1">
          <mxGeometry x="430" y="80" width="60" height="60" as="geometry"/>
        </mxCell>
        <mxCell id="abw72GNphMU_b3TvLCAP-3" value="finedb_dev" style="shape=datastore;whiteSpace=wrap;html=1;" vertex="1" parent="1">
          <mxGeometry x="760" y="80" width="60" height="60" as="geometry"/>
        </mxCell>
        <mxCell id="abw72GNphMU_b3TvLCAP-4" value="frplus_dev" style="shape=datastore;whiteSpace=wrap;html=1;" vertex="1" parent="1">
          <mxGeometry x="870" y="80" width="60" height="60" as="geometry"/>
        </mxCell>
        <mxCell id="abw72GNphMU_b3TvLCAP-5" value="reportlest" style="whiteSpace=wrap;html=1;shape=mxgraph.basic.document" vertex="1" parent="1">
          <mxGeometry x="150" y="260" width="60" height="70" as="geometry"/>
        </mxCell>
        <mxCell id="abw72GNphMU_b3TvLCAP-6" value="fplus" style="whiteSpace=wrap;html=1;shape=mxgraph.basic.document" vertex="1" parent="1">
          <mxGeometry x="150" y="360" width="60" height="70" as="geometry"/>
        </mxCell>
        <mxCell id="abw72GNphMU_b3TvLCAP-9" value="" style="group" vertex="1" connectable="0" parent="1">
          <mxGeometry x="57" y="320" width="40" height="60" as="geometry"/>
        </mxCell>
        <mxCell id="abw72GNphMU_b3TvLCAP-7" value="" style="shape=mxgraph.bpmn.service_task;html=1;outlineConnect=0;" vertex="1" parent="abw72GNphMU_b3TvLCAP-9">
          <mxGeometry x="3" width="34" height="34" as="geometry"/>
        </mxCell>
        <mxCell id="abw72GNphMU_b3TvLCAP-8" value="github" style="text;html=1;strokeColor=none;fillColor=none;align=center;verticalAlign=middle;whiteSpace=wrap;rounded=0;" vertex="1" parent="abw72GNphMU_b3TvLCAP-9">
          <mxGeometry y="40" width="40" height="20" as="geometry"/>
        </mxCell>
        <mxCell id="abw72GNphMU_b3TvLCAP-10" style="edgeStyle=orthogonalEdgeStyle;rounded=0;orthogonalLoop=1;jettySize=auto;html=1;" edge="1" parent="1" source="abw72GNphMU_b3TvLCAP-7" target="abw72GNphMU_b3TvLCAP-5">
          <mxGeometry relative="1" as="geometry"/>
        </mxCell>
        <mxCell id="abw72GNphMU_b3TvLCAP-11" style="edgeStyle=orthogonalEdgeStyle;rounded=0;orthogonalLoop=1;jettySize=auto;html=1;entryX=0.013;entryY=0.603;entryDx=0;entryDy=0;entryPerimeter=0;" edge="1" parent="1" source="abw72GNphMU_b3TvLCAP-7" target="abw72GNphMU_b3TvLCAP-6">
          <mxGeometry relative="1" as="geometry"/>
        </mxCell>
      </root>
    </mxGraphModel>
  </diagram>
</mxfile>
